<mxfile host="app.diagrams.net" modified="2024-05-23T07:07:46.903Z" agent="Mozilla/5.0 (Macintosh; Intel Mac OS X 10_15_7) AppleWebKit/605.1.15 (KHTML, like Gecko) Version/17.5 Safari/605.1.15" version="24.4.6" etag="qAUC7kJIV9zOWtsxR9-s" type="github">
  <diagram name="Strona-1" id="46KR6rDh6cbIYLR92AlU">
    <mxGraphModel>
      <root>
        <mxCell id="0" />
        <mxCell id="1" parent="0" />
      </root>
    </mxGraphModel>
  </diagram>
</mxfile>
